<svg width="204" height="287" viewBox="0 0 204 287" fill="none" xmlns="http://www.w3.org/2000/svg">
<path d="M159.215 10.606H142.372L159.892 29.6281V38.6747H123.797V28.0802H141.317L123.797 9.05812V0H159.227L159.215 10.606ZM116.631 10.606H99.7642L117.307 29.6281V38.6747H81.2008V28.0802H98.7208L81.2008 9.05812V0H116.631V10.606ZM74.4588 11.0417H56.2852V27.6445H74.4588V38.6862H43.3516V0H74.4588V11.0417Z" fill="#131313"/>
<path d="M18.572 263.615L0.0888672 56.3447H203.151L184.645 263.581L101.494 286.627L18.572 263.615Z" fill="#1572B6"/>
<path d="M101.609 269.013L168.8 250.38L184.6 73.2883H101.609V269.013Z" fill="#33A9DC"/>
<path d="M101.609 148.377H135.251L137.567 122.35H101.609V96.9409H165.36L164.753 103.763L158.504 173.82H101.609V148.377Z" fill="white"/>
<path d="M101.765 214.405H101.651L73.3413 206.758L71.5296 186.486H46.0293L49.5952 226.399L101.674 240.892H101.823V214.405H101.765Z" fill="#EBEBEB"/>
<path d="M133.113 172.711L130.052 206.731L101.696 214.379V240.865L153.809 226.418L154.188 222.118L158.613 172.7H133.113V172.711Z" fill="white"/>
<path d="M101.717 96.9409V122.361H40.3284L39.8009 116.651L38.6429 103.763L38.0352 96.9409H101.717ZM101.625 148.377V173.797H73.637L73.144 168.087L71.9859 155.2L71.3782 148.377H101.614H101.625Z" fill="#EBEBEB"/>
</svg>
