<svg width="21" height="24" viewBox="0 0 21 24" fill="none" xmlns="http://www.w3.org/2000/svg">
<path d="M10.2295 13.4504C13.9353 13.4504 16.9394 10.5289 16.9394 6.92513C16.9394 3.32135 13.9353 0.399902 10.2295 0.399902C6.52368 0.399902 3.51953 3.32135 3.51953 6.92513C3.51953 10.5289 6.52368 13.4504 10.2295 13.4504Z" fill="#55569E"/>
<path d="M20.211 20.3966C18.5065 16.713 14.6645 14.1345 10.2543 14.1345C6.00648 14.1345 2.35389 16.4762 0.514069 19.8967C0.189394 20.3177 0 20.8176 0 21.3702C0 22.7384 1.13636 23.8171 2.51623 23.8171H17.8842C19.2911 23.8171 20.4004 22.712 20.4004 21.3702C20.4004 21.0281 20.3463 20.6861 20.211 20.3966Z" fill="#55569E"/>
</svg>
